<svg width="192" height="190" xmlns="http://www.w3.org/2000/svg" xmlns:xlink="http://www.w3.org/1999/xlink" xml:space="preserve" overflow="hidden"><g transform="translate(-670 -356)"><path d="M133.914 61.2033C134.989 57.5602 135.714 53.8743 135.714 50.1312 135.714 41.1448 132.696 32.9052 127.746 26.1632 127.91 26.0275 128.113 25.971 128.266 25.8179L142.5 11.5836C145.151 8.93297 145.151 4.63888 142.5 1.98821 139.849-0.662455 135.555-0.662455 132.905 1.98821L118.671 16.2221C118.496 16.3968 118.429 16.6263 118.277 16.8142 111.669 12.1825 103.665 9.41645 95 9.41645 86.3329 9.41645 78.3279 12.1846 71.7186 16.8184 71.5664 16.6288 71.4981 16.3977 71.3225 16.2221L57.0886 1.98821C54.438-0.662455 50.1439-0.662455 47.4932 1.98821 44.8425 4.63888 44.8425 8.93297 47.4932 11.5836L61.7275 25.8179C61.8823 25.9727 62.0863 26.03 62.2517 26.1666 57.3032 32.9082 54.2857 41.1452 54.2857 50.1307 54.2857 53.8748 55.0097 57.5611 56.0856 61.2029 36.6959 73.9337 23.8187 95.7982 23.8187 120.675 23.8187 151.17 43.4078 178.203 72.5753 187.935L78.7482 190 82.3773 174.522C86.4716 175.654 90.6745 176.429 95 176.429 99.3246 176.429 103.528 175.654 107.623 174.521L111.252 190 117.425 187.935C146.592 178.204 166.181 151.17 166.181 120.675 166.181 95.7986 153.304 73.9337 133.914 61.2033ZM108.571 95C108.571 87.5043 114.647 81.4286 122.143 81.4286 129.639 81.4286 135.714 87.5043 135.714 95 135.714 102.495 129.639 108.571 122.143 108.571 114.647 108.571 108.571 102.495 108.571 95ZM67.8571 50.1307C67.8571 35.161 80.0303 22.9879 95 22.9879 109.963 22.9879 122.143 35.161 122.143 50.1307 122.143 51.6779 121.906 53.2238 121.618 54.7671 113.379 51.4272 104.422 49.4937 95 49.4937 85.5785 49.4937 76.6209 51.4272 68.3822 54.7671 68.0942 53.2238 67.8571 51.6783 67.8571 50.1307ZM67.8571 81.4286C75.3528 81.4286 81.4286 87.5043 81.4286 95 81.4286 102.495 75.3528 108.571 67.8571 108.571 60.3615 108.571 54.2857 102.495 54.2857 95 54.2857 87.5043 60.3615 81.4286 67.8571 81.4286ZM40.7143 135.714C40.7143 128.219 46.79 122.143 54.2857 122.143 61.7814 122.143 67.8571 128.219 67.8571 135.714 67.8571 143.209 61.7814 149.286 54.2857 149.286 46.79 149.286 40.7143 143.209 40.7143 135.714ZM85.5106 161.152 95 120.675 104.489 161.153C98.2792 162.866 91.7208 162.866 85.5106 161.152ZM135.714 149.286C128.219 149.286 122.143 143.209 122.143 135.714 122.143 128.219 128.219 122.143 135.714 122.143 143.21 122.143 149.286 128.219 149.286 135.714 149.286 143.209 143.21 149.286 135.714 149.286Z" fill="#CC293D" transform="matrix(1.01053 0 0 1 670 356)"/></g></svg>