<svg width="192" height="193" xmlns="http://www.w3.org/2000/svg" xmlns:xlink="http://www.w3.org/1999/xlink" xml:space="preserve" overflow="hidden"><g transform="translate(-1143 -369)"><path d="M62.4081 164.571 54.8571 164.571C47.2826 164.571 41.1429 170.711 41.1429 178.286L41.1429 192 150.857 192 150.857 178.286C150.857 170.711 144.717 164.571 137.143 164.571L129.592 164.571C126.406 148.941 112.556 137.143 96 137.143 79.4439 137.143 65.5941 148.941 62.4081 164.571ZM96 150.857C104.928 150.857 112.468 156.608 115.308 164.571L76.6916 164.571C79.5317 156.608 87.072 150.857 96 150.857ZM150.857 27.4286 150.857 13.7143 41.1429 13.7143 41.1429 27.4286 13.7143 27.4286 13.7143 61.7143C13.7143 78.879 26.4369 93.0077 42.9227 95.4857 48.8584 119.37 70.2789 137.143 96 137.143 121.721 137.143 143.142 119.37 149.077 95.4857 165.563 93.0077 178.286 78.879 178.286 61.7143L178.286 27.4286 150.857 27.4286ZM41.1429 81.0227C33.1787 78.1826 27.4286 70.6423 27.4286 61.7143L27.4286 41.1429 41.1429 41.1429 41.1429 81.0227ZM164.571 61.7143C164.571 70.6423 158.821 78.1826 150.857 81.0227L150.857 41.1429 164.571 41.1429 164.571 61.7143Z" fill="#773B93" transform="matrix(1 0 0 1.00521 1143 369)"/></g></svg>