<svg width="193" height="193" xmlns="http://www.w3.org/2000/svg" xmlns:xlink="http://www.w3.org/1999/xlink" xml:space="preserve" overflow="hidden"><g transform="translate(-196 -369)"><path d="M333.857 396.571 320.071 396.571C320.071 381.365 307.706 369 292.5 369 277.294 369 264.929 381.365 264.929 396.571L223.571 396.571 223.571 562 361.429 562 361.429 396.571 333.857 396.571ZM251.143 410.357 278.714 410.357 278.714 396.571C278.714 388.972 284.9 382.786 292.5 382.786 300.1 382.786 306.286 388.972 306.286 396.571L306.286 410.357 333.857 410.357 333.857 424.143 251.143 424.143 251.143 410.357ZM275.268 534.324 240.871 499.934 254.522 486.283 275.268 507.035 330.478 451.819 344.129 465.47 275.268 534.324Z" fill="#FFFFFF"/></g></svg>