<svg width="192" height="192" xmlns="http://www.w3.org/2000/svg" xmlns:xlink="http://www.w3.org/1999/xlink" xml:space="preserve" overflow="hidden"><g transform="translate(-448 -380)"><path d="M585.143 530.857C575.352 530.857 559.123 533.369 550.857 537.966L550.857 403.844C558.465 397.384 574.893 393.714 585.143 393.714L612.571 393.714 612.571 530.857 585.143 530.857ZM502.857 544.571 461.714 544.571 461.714 407.429 448 407.429 448 558.286 537.143 558.286C537.143 558.286 530.286 544.571 502.857 544.571ZM475.429 393.714 475.429 530.857 502.857 530.857C512.649 530.857 528.874 533.371 537.143 537.969L537.143 403.844C529.533 397.383 513.101 393.714 502.857 393.714L475.429 393.714ZM626.286 407.429 626.286 544.571 585.143 544.571C557.714 544.571 550.857 558.286 550.857 558.286L640 558.286 640 407.429 626.286 407.429Z" fill="#FFFFFF"/></g></svg>